<mxfile host="65bd71144e">
    <diagram id="tKBo6E1disZ8eA5wu0c1" name="Page-1">
        <mxGraphModel dx="1145" dy="1862" grid="1" gridSize="10" guides="1" tooltips="1" connect="1" arrows="1" fold="1" page="1" pageScale="1" pageWidth="850" pageHeight="1100" math="0" shadow="0">
            <root>
                <mxCell id="0"/>
                <mxCell id="1" parent="0"/>
                <mxCell id="13" value="" style="whiteSpace=wrap;html=1;" vertex="1" parent="1">
                    <mxGeometry x="30" y="-220" width="510" height="420" as="geometry"/>
                </mxCell>
                <mxCell id="2" value="Repl Design&lt;br&gt;" style="text;html=1;align=center;verticalAlign=middle;resizable=0;points=[];autosize=1;strokeColor=none;" vertex="1" parent="1">
                    <mxGeometry x="170" y="10" width="80" height="20" as="geometry"/>
                </mxCell>
                <mxCell id="6" style="edgeStyle=none;html=1;exitX=0.5;exitY=1;exitDx=0;exitDy=0;entryX=0.5;entryY=0;entryDx=0;entryDy=0;" edge="1" parent="1" source="3" target="5">
                    <mxGeometry relative="1" as="geometry"/>
                </mxCell>
                <mxCell id="8" style="edgeStyle=none;html=1;exitX=0.5;exitY=1;exitDx=0;exitDy=0;" edge="1" parent="1" source="3">
                    <mxGeometry relative="1" as="geometry">
                        <mxPoint x="430" y="320" as="targetPoint"/>
                    </mxGeometry>
                </mxCell>
                <mxCell id="3" value="REPL&lt;br&gt;&lt;br&gt;&lt;br&gt;Aggregates characters into lines.&lt;br&gt;&lt;br&gt;&lt;div style=&quot;text-align: left&quot;&gt;+ start()&lt;/div&gt;&lt;div style=&quot;text-align: left&quot;&gt;+ _process_character(self, text)&lt;/div&gt;&lt;div style=&quot;text-align: left&quot;&gt;+ _is_session_killer(self) -&amp;gt; bool&lt;/div&gt;&lt;div style=&quot;text-align: left&quot;&gt;+&amp;nbsp;&lt;/div&gt;" style="whiteSpace=wrap;html=1;" vertex="1" parent="1">
                    <mxGeometry x="130" y="40" width="280" height="150" as="geometry"/>
                </mxCell>
                <mxCell id="5" value="StatementProcessor&lt;br&gt;&lt;br&gt;Accepts lines as input, aggregates into statements.&lt;br&gt;&lt;br&gt;Returns indentionState to the REPL, to know how much to indent the newline." style="whiteSpace=wrap;html=1;" vertex="1" parent="1">
                    <mxGeometry x="20" y="320" width="160" height="110" as="geometry"/>
                </mxCell>
                <mxCell id="7" value="On newline character" style="text;html=1;align=center;verticalAlign=middle;resizable=0;points=[];autosize=1;strokeColor=none;" vertex="1" parent="1">
                    <mxGeometry x="75" y="230" width="130" height="20" as="geometry"/>
                </mxCell>
                <mxCell id="10" value="SyntaxHighlighter&lt;br&gt;&lt;br&gt;This class is in charge of creating ANSII colored text and sending back to the REPL." style="whiteSpace=wrap;html=1;" vertex="1" parent="1">
                    <mxGeometry x="360" y="320" width="220" height="120" as="geometry"/>
                </mxCell>
                <mxCell id="12" style="edgeStyle=none;html=1;exitX=0.5;exitY=1;exitDx=0;exitDy=0;entryX=0.5;entryY=0;entryDx=0;entryDy=0;" edge="1" parent="1" source="11" target="3">
                    <mxGeometry relative="1" as="geometry"/>
                </mxCell>
                <mxCell id="11" value="Comms&lt;br&gt;&lt;br&gt;Accepts stdio (single-char-strokes).&lt;br&gt;Hands off characters to the CharacterProcessor.&lt;br&gt;Receives PrintEvents to print characters to screen.&lt;br&gt;&lt;br&gt;This is mostly a wrapper around the python curses library.&lt;br&gt;" style="whiteSpace=wrap;html=1;" vertex="1" parent="1">
                    <mxGeometry x="130" y="-200" width="310" height="150" as="geometry"/>
                </mxCell>
                <mxCell id="14" value="How does this change when bash is added?&lt;br&gt;&lt;br&gt;&lt;div style=&quot;text-align: left&quot;&gt;&lt;span&gt;1.SyntaxHighlighter needs to &quot;turn off&quot; or switch to &quot;bash mode&quot; when a backtick is encountered.&lt;/span&gt;&lt;/div&gt;&lt;div style=&quot;text-align: left&quot;&gt;&lt;span&gt;2. StatementProcessor needs to identify bash tokens and send bash statements to BashVM when evaluating statements&lt;/span&gt;&lt;/div&gt;" style="whiteSpace=wrap;html=1;" vertex="1" parent="1">
                    <mxGeometry x="590" y="-80" width="250" height="170" as="geometry"/>
                </mxCell>
            </root>
        </mxGraphModel>
    </diagram>
</mxfile>